HIERARCHY
ROOT hips
{
  OFFSET 0 9.313263304106702 1.2146308026317778
  CHANNELS 6 Xposition Yposition Zposition Yrotation Xrotation Zrotation
  JOINT spine
  {
    OFFSET -6.402521e-31 0.5173342420023708 0
    CHANNELS 3 Yrotation Xrotation Zrotation
    JOINT chest
    {
      OFFSET 0 1.130544299341115 0
      CHANNELS 3 Yrotation Xrotation Zrotation
      JOINT upperChest
      {
        OFFSET 0 1.0863555061129995 0
        CHANNELS 3 Yrotation Xrotation Zrotation
        JOINT neck
        {
          OFFSET 0 1.3773706506454462 0
          CHANNELS 3 Yrotation Xrotation Zrotation
          JOINT head
          {
            OFFSET 0 0.7374408940073979 0
            CHANNELS 3 Yrotation Xrotation Zrotation
            JOINT leftEye
            {
              OFFSET 0.25066580148932727 0.6408406698778757 0.15963719178883284
              CHANNELS 3 Yrotation Xrotation Zrotation
              End Site
              {
                OFFSET 0.25066580148932727 0.6408406698778757 0.15963719178883284
              }
            }
            JOINT rightEye
            {
              OFFSET -0.25066576739704244 0.6408406384191823 0.15963727561643756
              CHANNELS 3 Yrotation Xrotation Zrotation
              End Site
              {
                OFFSET -0.25066576739704244 0.6408406384191823 0.15963727561643756
              }
            }
          }
        }
        JOINT leftShoulder
        {
          OFFSET 0.3761817444281191 1.0539491987447769 0
          CHANNELS 3 Yrotation Xrotation Zrotation
          JOINT leftUpperArm
          {
            OFFSET 0.8702844380000002 0 0
            CHANNELS 3 Yrotation Xrotation Zrotation
            JOINT leftLowerArm
            {
              OFFSET 2.198527310000323 0 0
              CHANNELS 3 Yrotation Xrotation Zrotation
              JOINT leftHand
              {
                OFFSET 2.146852313968281 0 0
                CHANNELS 3 Yrotation Xrotation Zrotation
                JOINT leftIndexProximal
                {
                  OFFSET 0.6585177834681599 0.07380250427007962 0.18382213159631788
                  CHANNELS 3 Yrotation Xrotation Zrotation
                  JOINT leftIndexIntermediate
                  {
                    OFFSET 0.3323021288626682 -0.009606893929485771 -0.012820872253340998
                    CHANNELS 3 Yrotation Xrotation Zrotation
                    JOINT leftIndexDistal
                    {
                      OFFSET 0.2045908926985518 -0.0071133989147997845 -0.006828784783599051
                      CHANNELS 3 Yrotation Xrotation Zrotation
                      End Site
                      {
                        OFFSET 0.2045908926985518 -0.0071133989147997845 -0.006828784783599051
                      }
                    }
                  }
                }
                JOINT leftLittleProximal
                {
                  OFFSET 0.6110054258835662 0.07380246363125398 -0.29175655876064077
                  CHANNELS 3 Yrotation Xrotation Zrotation
                  JOINT leftLittleIntermediate
                  {
                    OFFSET 0.3144281999999998 -2.5124724523095665e-9 1.8658118799974588e-7
                    CHANNELS 3 Yrotation Xrotation Zrotation
                    JOINT leftLittleDistal
                    {
                      OFFSET 0.18116185580251631 0.002815456192251098 0.0034826415518049436
                      CHANNELS 3 Yrotation Xrotation Zrotation
                      End Site
                      {
                        OFFSET 0.18116185580251631 0.002815456192251098 0.0034826415518049436
                      }
                    }
                  }
                }
                JOINT leftMiddleProximal
                {
                  OFFSET 0.6637478005691111 0.07380246480054087 0.02046981859247815
                  CHANNELS 3 Yrotation Xrotation Zrotation
                  JOINT leftMiddleIntermediate
                  {
                    OFFSET 0.3705733999999994 -2.9611069152224445e-9 9.35054791928458e-8
                    CHANNELS 3 Yrotation Xrotation Zrotation
                    JOINT leftMiddleDistal
                    {
                      OFFSET 0.22861063500000056 -1.82673876025774e-9 -1.6740782024515788e-7
                      CHANNELS 3 Yrotation Xrotation Zrotation
                      End Site
                      {
                        OFFSET 0.22861063500000056 -1.82673876025774e-9 -1.6740782024515788e-7
                      }
                    }
                  }
                }
                JOINT leftRingProximal
                {
                  OFFSET 0.6561845547265777 0.07380246406440083 -0.13588087571513918
                  CHANNELS 3 Yrotation Xrotation Zrotation
                  JOINT leftRingIntermediate
                  {
                    OFFSET 0.3437531000000005 -2.746796123886952e-9 1.4935781944558357e-7
                    CHANNELS 3 Yrotation Xrotation Zrotation
                    JOINT leftRingDistal
                    {
                      OFFSET 0.1983118991198174 -0.002467117924596085 -0.004538141969590015
                      CHANNELS 3 Yrotation Xrotation Zrotation
                      End Site
                      {
                        OFFSET 0.1983118991198174 -0.002467117924596085 -0.004538141969590015
                      }
                    }
                  }
                }
                JOINT leftThumbProximal
                {
                  OFFSET 0.09767004258864787 -0.14930060425447422 -0.07008212897521154
                  CHANNELS 3 Yrotation Xrotation Zrotation
                  JOINT leftThumbIntermediate
                  {
                    OFFSET 0.36682123028154767 -0.015768465060082004 0.28693641268151077
                    CHANNELS 3 Yrotation Xrotation Zrotation
                    JOINT leftThumbDistal
                    {
                      OFFSET 0.21091084272403915 -0.016756648201192714 0.1933767059105508
                      CHANNELS 3 Yrotation Xrotation Zrotation
                      End Site
                      {
                        OFFSET 0.21091084272403915 -0.016756648201192714 0.1933767059105508
                      }
                    }
                  }
                }
              }
            }
          }
        }
        JOINT rightShoulder
        {
          OFFSET -0.37618174442811925 1.0539491987447769 0
          CHANNELS 3 Yrotation Xrotation Zrotation
          JOINT rightUpperArm
          {
            OFFSET -0.870284438 0 0
            CHANNELS 3 Yrotation Xrotation Zrotation
            JOINT rightLowerArm
            {
              OFFSET -2.1985273100003235 0 0
              CHANNELS 3 Yrotation Xrotation Zrotation
              JOINT rightHand
              {
                OFFSET -2.1468523139682802 0 0
                CHANNELS 3 Yrotation Xrotation Zrotation
                JOINT rightIndexProximal
                {
                  OFFSET -0.6585177834681599 0.07380250427007962 0.18382213159631788
                  CHANNELS 3 Yrotation Xrotation Zrotation
                  JOINT rightIndexIntermediate
                  {
                    OFFSET -0.3323021288626682 -0.009606893929485771 -0.012820872253340998
                    CHANNELS 3 Yrotation Xrotation Zrotation
                    JOINT rightIndexDistal
                    {
                      OFFSET -0.2045908926985518 -0.0071133989147997845 -0.006828784783599051
                      CHANNELS 3 Yrotation Xrotation Zrotation
                      End Site
                      {
                        OFFSET -0.2045908926985518 -0.0071133989147997845 -0.006828784783599051
                      }
                    }
                  }
                }
                JOINT rightLittleProximal
                {
                  OFFSET -0.6110054258835662 0.07380246363125398 -0.29175655876064077
                  CHANNELS 3 Yrotation Xrotation Zrotation
                  JOINT rightLittleIntermediate
                  {
                    OFFSET -0.3144281999999998 -2.5124724523095665e-9 1.8658118799974588e-7
                    CHANNELS 3 Yrotation Xrotation Zrotation
                    JOINT rightLittleDistal
                    {
                      OFFSET -0.18116185580251631 0.002815456192251098 0.0034826415518049436
                      CHANNELS 3 Yrotation Xrotation Zrotation
                      End Site
                      {
                        OFFSET -0.18116185580251631 0.002815456192251098 0.0034826415518049436
                      }
                    }
                  }
                }
                JOINT rightMiddleProximal
                {
                  OFFSET -0.6637478005691111 0.07380246480054087 0.02046981859247815
                  CHANNELS 3 Yrotation Xrotation Zrotation
                  JOINT rightMiddleIntermediate
                  {
                    OFFSET -0.3705733999999994 -2.9611069152224445e-9 9.35054791928458e-8
                    CHANNELS 3 Yrotation Xrotation Zrotation
                    JOINT rightMiddleDistal
                    {
                      OFFSET -0.22861063500000056 -1.82673876025774e-9 -1.6740782024515788e-7
                      CHANNELS 3 Yrotation Xrotation Zrotation
                      End Site
                      {
                        OFFSET -0.22861063500000056 -1.82673876025774e-9 -1.6740782024515788e-7
                      }
                    }
                  }
                }
                JOINT rightRingProximal
                {
                  OFFSET -0.6561845547265777 0.07380246406440083 -0.13588087571513918
                  CHANNELS 3 Yrotation Xrotation Zrotation
                  JOINT rightRingIntermediate
                  {
                    OFFSET -0.3437531000000005 -2.746796123886952e-9 1.4935781944558357e-7
                    CHANNELS 3 Yrotation Xrotation Zrotation
                    JOINT rightRingDistal
                    {
                      OFFSET -0.1983118991198174 -0.002467117924596085 -0.004538141969590015
                      CHANNELS 3 Yrotation Xrotation Zrotation
                      End Site
                      {
                        OFFSET -0.1983118991198174 -0.002467117924596085 -0.004538141969590015
                      }
                    }
                  }
                }
                JOINT rightThumbProximal
                {
                  OFFSET -0.09767004258864787 -0.14930060425447422 -0.07008212897521154
                  CHANNELS 3 Yrotation Xrotation Zrotation
                  JOINT rightThumbIntermediate
                  {
                    OFFSET -0.36682123028154767 -0.015768465060082004 0.28693641268151077
                    CHANNELS 3 Yrotation Xrotation Zrotation
                    JOINT rightThumbDistal
                    {
                      OFFSET -0.21091084272403915 -0.016756648201192714 0.1933767059105508
                      CHANNELS 3 Yrotation Xrotation Zrotation
                      End Site
                      {
                        OFFSET -0.21091084272403915 -0.016756648201192714 0.1933767059105508
                      }
                    }
                  }
                }
              }
            }
          }
        }
      }
    }
  }
  JOINT leftUpperLeg
  {
    OFFSET 0.7715603 -0.3993844658041501 0
    CHANNELS 3 Yrotation Xrotation Zrotation
    JOINT leftLowerLeg
    {
      OFFSET 0 -3.529830000249343 0
      CHANNELS 3 Yrotation Xrotation Zrotation
      JOINT leftFoot
      {
        OFFSET 0 -4.154939295409685 0.004208579085223096
        CHANNELS 3 Yrotation Xrotation Zrotation
        JOINT leftToes
        {
          OFFSET 0 -0.6353414391261847 1.10414981190622
          CHANNELS 3 Yrotation Xrotation Zrotation
          End Site
          {
            OFFSET 0 -0.6015820691747853 1.10414981190622
          }
        }
      }
    }
  }
  JOINT rightUpperLeg
  {
    OFFSET -0.7715603 -0.3993844658041501 0
    CHANNELS 3 Yrotation Xrotation Zrotation
    JOINT rightLowerLeg
    {
      OFFSET 0 -3.529830000249343 0
      CHANNELS 3 Yrotation Xrotation Zrotation
      JOINT rightFoot
      {
        OFFSET 0 -4.154939295409685 0.004208579085223096
        CHANNELS 3 Yrotation Xrotation Zrotation
        JOINT rightToes
        {
          OFFSET 0 -0.6353414391261847 1.10414981190622
          CHANNELS 3 Yrotation Xrotation Zrotation
          End Site
          {
            OFFSET 0 -0.6015820691747853 1.10414981190622
          }
        }
      }
    }
  }
}
MOTION
Frames: 4
Frame Time: 0.03333333333333333
-0.6335846944288773 8.73249747536399 42.83162201911793 161.82107229783134 1.4816128713846222 3.0931563116385203 8.436914213485158 -8.286613146846578 -3.409753873701946 1.6551078975491538 5.845429493801683 -5.5020817355738485 0 0 0 -1.1276513644033157 -2.2669128299329513 -1.9361960362296244 9.514402194932412 5.093128317618394 5.138732719734367 0 0 0 0 0 0 -9.185941487720973 2.1511513389487185 -8.395755543319382 30.76246401967679 12.447914065642227 -70.3172271826631 -34.68445513704019 -0.00004169124733692444 0.000019432212444454196 3.1454364818393743 14.401823042507479 -0.03354740227645765 -1.196935585708325 -0.6011872066627617 -15.826076885239873 3.1671017701687214 0.7651388782072557 -27.141025379804166 2.1616344349545367 0.3488288804996535 -18.2790207283503 10.958797559752107 2.107961116694584 -10.92073693999819 -1.1037256653594523 0.7872729101562809 -26.23124672222662 2.9030019851150763 0.7368919116127827 -25.05516221321334 -1.7410707991856609 -0.5140425040093867 -11.987126601009452 2.5177406785277703 0.47316257075909496 -21.32449719760435 2.599107366201526 0.5064783565059011 -22.050871252273847 0.7803458627648058 0.001212237160983295 -12.836303824905274 3.420754435307191 0.9054827856262418 -29.632991959070072 0.3866905447743202 0.010861786766424448 -3.2059498239314586 8.353903264833345 -6.568604913849336 18.85691616545326 25.064333843574047 10.920677024150015 -2.912931545856422 7.27830062889418 4.761234863484274 -2.5885713327070627 8.511855185737176 1.163394773384854 2.6213319277185954 48.80780215938089 42.23996541075328 103.50369185570263 63.44402695570697 -0.000004582013533642645 0.0000016518291651491867 57.655901321298174 35.231917419482436 -35.739159615882954 12.88794498962267 8.11521295315877 -36.69983987791073 -1.9068850623262954 0.2707566966927575 16.09124254445584 -1.8313616276903122 0.24155766602650564 15.115879135844246 -9.445543817545726 -3.2870512361483186 -17.90629572857285 -1.2181577021390386 0.0950090020922249 10.831935082956344 -1.1779655890293352 0.07440171176589848 9.227479940121395 8.064131269241653 3.4343297120509284 -28.258986027591977 -2.6571209072872017 0.5490099887190059 23.19499084986116 -0.10843817453207394 2.245333408424615 0.8659722800708263 5.059703826062047 1.4284936885739692 -20.484645406056906 -1.4403022748570216 0.14640726521888522 11.690594709147485 -0.40613100245480016 -0.5471673007985846 2.989453634617815 4.118621426113109 2.452682762017802 9.54026425363469 -7.665948999360312 4.190800517184891 -0.6203669973952673 19.991464234048024 -7.661996761759686 -4.017656159609146 2.734891366041216 -3.812543846775233 -12.877840259067383 1.5257965076223898 17.82237705542898 2.2655768985977387 0.252795502787371 -15.51310977244615 -1.4014872699548395 -0.0008131765727237959 0.16436333836356595 0.28498372728250354 -13.057239942652792 -7.159458336645363 -10.642248284350108 -17.54814537670163 53.6852933471587 -15.798019622203542 -7.447767159694852 17.05004636980446 23.677270364113173 0.000025078797025382413 -12.210620214626493 -0.00001632061015786838
-0.67178644917228 8.671612306074662 42.74024268007319 162.66849158272302 1.2496757851736928 3.9428558581057174 7.706499038444338 -7.6514293024753695 -2.8643617046713907 1.4298540024050355 5.821253929378223 -5.833371380416442 0 0 0 -0.4547767046704256 -2.0551955281338263 -2.2920701094277143 12.692474230180105 5.104383328627577 4.832668878773479 0 0 0 0 0 0 -10.582408658792167 2.503207239568824 -8.845908468095944 28.113550210693305 8.770896020554181 -70.7345770088088 -32.04190604345162 -0.00004544228014783031 0.000015913589532344645 3.396142279914579 16.803503569751623 -1.4603565243772343 -1.5213783485339132 -0.6749328546837398 -15.57205625138326 3.1668897972155556 0.7650106406452573 -27.139039613122854 2.1588564054706647 0.3479233567678818 -18.25487418624321 10.4227429320447 1.8331276055307677 -9.969038971699785 -0.9521325784483816 0.8701916031141841 -27.660154952214274 2.906695092371414 0.7387601232513362 -25.08933357779668 -1.8065959219986913 -0.47890818545971386 -11.137288080741136 2.574852085068465 0.49574206243107577 -21.83296270458265 2.5868850988747503 0.5015393516751759 -21.941677552645032 0.7454844709610592 -0.0037480221202612646 -12.628155527273544 3.479758426778932 0.9394444335966127 -30.196110991786696 0.354220970771725 0.009096793987653482 -2.9365947163400365 8.472391650699137 -6.594300373671228 19.857115291852505 24.543517043017342 10.747287642550965 -2.956747939936463 6.763217783025141 4.551083633920679 -2.5387683940079304 7.9637545428772 1.1172965929140755 2.6043306634785375 44.426613564182226 43.4278480550788 101.94969563166389 64.71083440015865 -4.751586358595552e-7 0.000003888621265536647 56.455361288428605 33.53349856500305 -32.92859012878807 12.500267408319479 7.770206260928319 -36.55818313248298 -1.8990093044167224 0.2684931042494597 16.02401009309871 -1.830442019385586 0.24130110476811253 15.108123327489636 -9.852223932187295 -3.351582912436379 -17.643163724638725 -1.2174647641608143 0.09488864652326898 10.826246645907796 -1.1746720864789963 0.07390859037110997 9.200103664314309 7.665358041376563 3.1946209322587853 -28.07723597378221 -2.6521757257290406 0.5469306346287818 23.15101280663891 -0.11227059165934872 1.9617643098037576 0.8607558330093326 4.675545559568389 1.2724338313987458 -20.261971229536368 -1.428653723688027 0.14398857007320862 11.593051402556855 -0.4260592235708987 -0.9117254029668208 2.9961854164982906 3.8638770596168284 1.9692227821585242 9.89915474465733 -7.641282280790863 4.144007392068097 -0.6375323202532384 19.995390342521073 -7.67201054790845 -4.021093404334136 3.071164695523666 -3.9977561906808896 -14.023715865384027 0.413171045245507 20.298163489990394 1.6331606527622662 0.2280367730312398 -17.3268556385876 -1.2596785094326217 -0.0012256108491783633 0.20096864321267446 0.3484767917840724 -10.939389884408547 -14.062762418984859 -12.747437066721334 -25.137544220970995 64.53743385264377 -25.140808175091056 -4.688308904463474 18.604251128870384 24.16304755555737 -0.00001180783271324579 -8.261836566469714 0.000008182819128514384
-0.6967824697494507 8.594862331043588 42.676575382709906 162.98652252750782 0.7238066606631736 4.924354911011178 6.658419610353474 -5.942917362518196 -2.7764579322891048 1.1377017777167755 5.924288104140646 -5.851169291217194 0 0 0 0.1617246774530233 -2.2030260784027345 -2.4800197456336788 15.780498821127074 4.319586154784489 4.475867590122946 0 0 0 0 0 0 -12.078940244165588 2.905431646170985 -9.342936049847113 24.816519653473513 4.476621750101878 -70.39849188447893 -29.9427775938205 -0.00003059101419908573 0.000014141150375008741 3.5746643038551973 20.125636643337312 -4.105948447172509 -1.8386001908986307 -0.7592910251325226 -15.546946729153191 3.166597283152218 0.7648716765998776 -27.136406210146397 2.154888517789139 0.3466186332691671 -18.220176799220393 9.978750408322522 1.5592522919900547 -8.800078726121658 -0.7799980635925807 0.9704665527482682 -29.30730389283708 2.916002982539636 0.743460700477925 -25.17559629934902 -1.6452974172307189 -0.39686064289251366 -10.152873262766374 2.6349477315392056 0.5201279701370871 -22.36973048593799 2.572447418648461 0.49573555216333925 -21.81294890643832 0.9870835236818837 0.055013156807962815 -12.066014739496795 3.539686806710737 0.974715435829621 -30.771367485790382 0.31969909180105793 0.007422934884901071 -2.650091552059333 8.889788230496563 -6.5370258435890305 20.88952279280777 24.22707939411408 10.642163536696609 -2.9821978698363902 6.267266080513406 4.350606696679805 -2.488079494902712 7.797579602015567 1.107665171208697 2.9238997347789666 39.893490920575076 44.21992238714333 99.49126159929824 65.59806050573418 0.000019351387883556707 0.000004001205369706969 55.43276320089635 32.69218590805381 -30.131932972562883 12.674644746658553 7.916788321052858 -36.587650921962464 -1.9029584893568803 0.26961425481048384 16.057755650129845 -1.8314004548943048 0.24156815152728967 15.116231229031541 -9.6439456959857 -3.3121295091365064 -17.74737392577209 -1.2254673827907263 0.09623933832074218 10.89300678986841 -1.1780506283233574 0.07440421972809894 9.228058509776893 7.848229163597704 3.3004759514832087 -28.12549849194235 -2.6552473003538744 0.5482173836371527 23.17830356083196 -0.11106489153657349 2.054464441226587 0.8628913480812023 4.859852981606885 1.3454998553663775 -20.340334731014718 -1.4397328559198699 0.14627927879574848 11.685799130039946 -0.41830799188334006 -0.7784723503918755 2.9903954206755414 3.9997375268008373 2.1253609428134834 9.675539905383559 -7.664601915893354 4.192327734294498 -0.6207408915694069 19.99168972531375 -7.6610663806488635 -4.017764392380118 3.300253693434912 -4.314469058394514 -15.432180633200252 0.2954286665793082 23.20028049224787 1.4598595729821147 0.0571644267470018 -19.25585235625187 -0.41268452198357697 -0.0014661363292948761 0.22043301312450636 0.38204724407753016 -6.595294651323468 -21.540069929603444 -14.579975463216899 -45.82926874315459 75.31175325417871 -47.65654853697757 -2.209935260372983 22.290449638001224 22.075989707850088 -0.000009600292563580197 -6.164620840353719 0.00002831141536228152
-0.703600374135104 8.510149175470524 42.6278825060675 163.03933313561134 -0.33865342304829193 5.778042092719487 5.17362624507281 -3.080058053665454 -3.0596812958141903 0.7633125656572328 6.224724417082764 -5.473924273620767 0 0 0 0.7484028212325714 -2.8467044887293746 -2.5871913545089495 18.803702527687463 2.784996272260706 3.9122468447975316 0 0 0 0 0 0 -13.35616291827965 3.2803359531598897 -9.791501714920699 20.26484997176486 -0.058747007623359326 -68.85697070271898 -28.635010260456777 -0.00003664892357422926 0.0000021310052232379913 3.5043577507603496 23.660258608659923 -7.960429035329368 -2.058390207653914 -0.8545990762876273 -16.037556061310582 3.1662824142497317 0.7647339933335475 -27.133470379283217 2.150099351034874 0.34503304000413376 -18.178389857885954 9.601180965740225 1.3155459884267542 -7.644290638197067 -0.6292783522953721 1.0638342732365937 -30.772876422319232 2.928401484680851 0.7497598969958418 -25.290600950743546 -1.2706181263147647 -0.3006115848863884 -9.4354755528381 2.7238305575846775 0.5574258677706292 -23.16761708067337 2.553791383569645 0.48830659374609764 -21.646677360304707 1.3795019410236817 0.1389938055883389 -11.41153970350508 3.599997134588989 1.0110344439518357 -31.35356179897198 0.29081992266183054 0.0061400978673476145 -2.41066430253283 9.55325658244176 -6.398155102276278 21.629793438578442 24.147136210412373 10.615657562426307 -2.9884432620802004 5.897274402071153 4.202217050984948 -2.4485464310349196 7.881195855914911 1.1153045743755012 3.3225794324190714 35.42858735854249 44.35209655769205 96.23036448019064 66.04787175138492 0.0000027024638795209027 0.00000648668600752667 54.568088907139796 32.550307316993035 -27.915341849664042 12.672110776526937 7.750416398269964 -35.88147096692106 -1.9182884478749314 0.2740256194827927 16.188414206867645 -1.8392742460982698 0.24369921633722166 15.183030637488228 -9.604630934784872 -3.205334139583548 -17.321713435071466 -1.3101546364442398 0.1111120329274044 11.597898475505069 -1.206987265928555 0.07873398990005856 9.468055057881784 7.762545777930106 3.18258693179891 -27.419011210258635 -2.660406554289311 0.5504075737790582 23.224250737485377 -0.11024813099128994 2.132893011150113 0.8672742297272228 4.756180786670881 1.2818998370202326 -19.810236836183034 -1.5152133402320096 0.1624037998164004 12.318999588709044 -0.4047184078106514 -0.6435157466199511 2.9412647773272953 3.793517127549381 1.894177182220415 8.860940360812727 -7.912320997236563 4.612314728418919 -0.4665597534643242 19.953878105981165 -7.575349062399947 -3.987191204458186 3.841158048071063 -4.45338707463852 -16.510653557163447 0.46680760318103315 26.82652200530565 1.2803505818856102 -0.2622529204831069 -21.03376225164046 0.9742284060433721 -0.00005387411933777161 -0.4680415170494853 0.06726596805999209 -0.449140181199808 -28.546667398636295 -16.283957205446175 -103.94959704114403 79.24804966693682 -107.06745954326274 1.8389443377051158 27.753128160020584 18.532552247462604 -3.3290897731326955e-7 -6.609716741619731 0.0000027073307280278208
